# xmcd
# 
# Track frame offsets:
#     150
#     12238
#     24423
#     35746
#     48041
#     58821
#     72137
#     85161
#     98991
#     111314
#     124868
#     137999
#     151925
#     169143
#     182472
#     194470
#     205779
#     214780
#     226539
#     239388
#     248758
#     261541
#     275113
#     288230
#     300948
#     313671
#     326856
#     338708
# 
# Disc length: 4693
# 
# Revision: 2
# Processed by: cddbd v1.5.2PL0 Copyright (c) Steve Scherf et al.
# Submitted via: fre:ac v1.0.31
# 
DISCID=9412531c
DTITLE=Motown - Complete Motown Singles - Volume 05 - Disc 25
DYEAR=2006
DGENRE=R&B
TTITLE0=The Supremes - Mother Dear (version 1) (mono)
TTITLE1=The Supremes - Nothing But Heartaches (1st pressing mix) (mono)
TTITLE2=The Supremes - He Holds His Own (mono)
TTITLE3=The Supremes - Nothing But Heartaches (2nd pressing mix) (mono)
TTITLE4=The Marvelettes - Danger Heartbreak Dead Ahead (mono)
TTITLE5=The Marvelettes - Your Cheating Ways (1st pressing mix) (mono)
TTITLE6=The Marvelettes - Your Cheating Ways (2nd pressing mix) (mono)
TTITLE7=Brenda Holloway - You've Changed Me (mono)
TTITLE8=Brenda Holloway - Who's Lovin' You (mono)
TTITLE9=Martha and The Vandellas - You've Been In Love Too Long (mono)
TTITLE10=Martha and The Vandellas - Love (Makes Me Do Foolish Things) (mono)
TTITLE11=Stevie Wonder - High Heel Sneakers (mono)
TTITLE12=Stevie Wonder - Funny (How Time Slips Away) (mono)
TTITLE13=Stevie Wonder - Music Talk (mono)
TTITLE14=Tony Martin - The Bigger Your Heart Is (The Harder You'll Fall) (mono)
TTITLE15=Tony Martin - The Two Of Us (mono)
TTITLE16=Richard Anthony - I Don't Know What To Do (mono)
TTITLE17=Richard Anthony - What Now My Love (mono)
TTITLE18=Little Lisa - Hang On Bill (mono)
TTITLE19=Little Lisa - Puppet On A String (mono)
TTITLE20=Brenda Holloway - You Can Cry On My Shoulder (promo version) (mono)
TTITLE21=Brenda Holloway - How Many Times Did You Mean It (mono)
TTITLE22=Brenda Holloway - You Can Cry On My Shoulder (commercial version) (mono)
TTITLE23=The Lewis Sisters - You Need Me (mono)
TTITLE24=The Lewis Sisters - Moonlight On The Beach (mono)
TTITLE25=Kim Weston - Take Me In Your Arms (Rock Me A Little While) (mono)
TTITLE26=Kim Weston - Don't Compare Me With Her (mono)
TTITLE27=The Supremes - Things Are Changing (mono)
EXTD=
EXTT0=
EXTT1=
EXTT2=
EXTT3=
EXTT4=
EXTT5=
EXTT6=
EXTT7=
EXTT8=
EXTT9=
EXTT10=
EXTT11=
EXTT12=
EXTT13=
EXTT14=
EXTT15=
EXTT16=
EXTT17=
EXTT18=
EXTT19=
EXTT20=
EXTT21=
EXTT22=
EXTT23=
EXTT24=
EXTT25=
EXTT26=
EXTT27=
PLAYORDER=
